<?xml version="1.0" standalone="no"?>
<!DOCTYPE svg PUBLIC "-//W3C//DTD SVG 1.1//EN"
  "http://www.w3.org/Graphics/SVG/1.1/DTD/svg11.dtd">
<svg width="500" height="500" version="1.1"
     xmlns="http://www.w3.org/2000/svg">
<line x1="160" y1="110" x2="190" y2="110" style="stroke: black;"/>
<path d="M 190 110 q 10 0 10 -10" stroke="black" fill="none" />
<line x1="200" y1="100" x2="200" y2="60" style="stroke: black;"/>
<path d="M 200 60 q 0 -10 -10 -10" stroke="black" fill="none" />
<line x1="190" y1="50" x2="60" y2="50" style="stroke: black;"/>
<path d="M 60 50 q -10 0 -10 10" stroke="black" fill="none" />
<line x1="50" y1="60" x2="50" y2="150" style="stroke: black;"/>
<path d="M 50 150 q 0 10 10 10" stroke="black" fill="none" />
<line x1="60" y1="160" x2="90" y2="160" style="stroke: black;"/>
<path d="M 90 160 q 10 0 10 -10" stroke="black" fill="none" />
<line x1="100" y1="150" x2="100" y2="120" style="stroke: black;"/>
<path d="M 100 120 q 0 -10 10 -10" stroke="black" fill="none" />
<line x1="110" y1="110" x2="140" y2="110" style="stroke: black;"/>
<path d="M 140 110 q 10 0 20 0" stroke="black" fill="none" />
</svg>
